<svg width="30" height="31" viewBox="0 0 30 31" fill="none" xmlns="http://www.w3.org/2000/svg">
<path d="M27.9111 6.75874L15.6106 0.267031C15.2819 0.0918739 14.9125 0 14.5371 0C14.1616 0 13.7922 0.0918739 13.4636 0.267031L1.16296 6.76143C0.811704 6.94682 0.518474 7.21979 0.313928 7.55178C0.109285 7.88386 0.000870409 8.26268 0 8.64897V21.5433C0.000870409 21.9296 0.109285 22.3085 0.313928 22.6405C0.518474 22.9725 0.811704 23.2456 1.16296 23.4309L13.4636 29.9253C13.7922 30.1004 14.1616 30.1923 14.5371 30.1923C14.9125 30.1923 15.2819 30.1004 15.6106 29.9253L27.9111 23.4309C28.2624 23.2456 28.5556 22.9725 28.7602 22.6405C28.9648 22.3085 29.0732 21.9296 29.0741 21.5433V8.65027C29.0739 8.26343 28.9659 7.88368 28.7613 7.55084C28.5567 7.21801 28.263 6.94445 27.9111 6.75874ZM14.5371 2.15455L25.7669 8.08675L21.6057 10.2843L10.3744 4.35216L14.5371 2.15455ZM14.5371 14.019L3.30717 8.08675L8.04568 5.58444L19.2756 11.5167L14.5371 14.019ZM2.23647 9.97423L13.4188 15.8768V27.4432L2.23647 21.5447V9.97423ZM26.8376 21.5393L15.6553 27.4432V15.8822L20.1282 13.5214V18.3333C20.1282 18.6193 20.246 18.8936 20.4558 19.096C20.6654 19.2982 20.9499 19.4118 21.2465 19.4118C21.543 19.4118 21.8274 19.2982 22.0371 19.096C22.2469 18.8936 22.3647 18.6193 22.3647 18.3333V12.3403L26.8376 9.97423V21.538V21.5393Z" fill="#1DA1F3"/>
</svg>
