<svg width="141" height="37" viewBox="0 0 141 37" fill="none" xmlns="http://www.w3.org/2000/svg">
<path d="M62.7216 9.56075L50.0029 2.60157C49.663 2.4138 49.2811 2.31531 48.8929 2.31531C48.5046 2.31531 48.1227 2.4138 47.7829 2.60157L35.0641 9.56364C34.7009 9.76238 34.3977 10.055 34.1862 10.4109C33.9746 10.7669 33.8625 11.173 33.8616 11.5871V25.41C33.8625 25.8241 33.9746 26.2303 34.1862 26.5862C34.3977 26.9421 34.7009 27.2348 35.0641 27.4335L47.7829 34.3956C48.1227 34.5833 48.5046 34.6818 48.8929 34.6818C49.2811 34.6818 49.663 34.5833 50.0029 34.3956L62.7216 27.4335C63.0848 27.2348 63.388 26.9421 63.5996 26.5862C63.8111 26.2303 63.9232 25.8241 63.9241 25.41V11.5885C63.9239 11.1738 63.8122 10.7667 63.6007 10.4099C63.3891 10.0531 63.0855 9.75984 62.7216 9.56075ZM48.8929 4.62501L60.5045 10.9844L56.2018 13.3402L44.5887 6.98087L48.8929 4.62501ZM48.8929 17.3438L37.2812 10.9844L42.1808 8.30189L53.7925 14.6613L48.8929 17.3438ZM36.1741 13.0078L47.7366 19.3354V31.7347L36.1741 25.4115V13.0078ZM61.6116 25.4057L50.0491 31.7347V19.3412L54.6741 16.8104V21.9688C54.6741 22.2754 54.7959 22.5695 55.0128 22.7864C55.2296 23.0032 55.5237 23.125 55.8304 23.125C56.137 23.125 56.4311 23.0032 56.6479 22.7864C56.8648 22.5695 56.9866 22.2754 56.9866 21.9688V15.5443L61.6116 13.0078V25.4043V25.4057Z" fill="#1DA1F3"/>
<path d="M2.58092 10.2902H4.89342L9.23968 21.8836L13.5756 10.2902H15.8881L10.1482 25.3214H8.31055L2.58092 10.2902ZM1.5279 10.2902H3.72684L4.10882 20.3248V25.3214H1.5279V10.2902ZM14.7422 10.2902H16.9515V25.3214H14.3602V20.3248L14.7422 10.2902ZM23.0218 24.1032L26.0569 14.1512H28.7204L24.24 27.0248C24.1367 27.3001 24.0025 27.5995 23.8373 27.923C23.6722 28.2465 23.4554 28.5527 23.1869 28.8418C22.9254 29.1377 22.5985 29.3752 22.2062 29.5541C21.8139 29.74 21.339 29.8329 20.7815 29.8329C20.5613 29.8329 20.3479 29.8122 20.1415 29.7709C19.9419 29.7365 19.7526 29.6987 19.5737 29.6574L19.5633 27.7578C19.6322 27.7647 19.7148 27.7716 19.8111 27.7785C19.9143 27.7853 19.9969 27.7888 20.0589 27.7888C20.4718 27.7888 20.8159 27.7372 21.0912 27.6339C21.3665 27.5376 21.5902 27.3793 21.7623 27.159C21.9412 26.9388 22.0926 26.6429 22.2165 26.2712L23.0218 24.1032ZM21.308 14.1512L23.9612 22.5134L24.4051 25.1356L22.6811 25.5795L18.6239 14.1512H21.308Z" fill="white"/>
<path d="M76.4261 10.2902V25.3214H73.8555V10.2902H76.4261ZM81.144 10.2902V12.3549H69.1789V10.2902H81.144ZM84.6334 16.2779V25.3214H82.1454V14.1512H84.5198L84.6334 16.2779ZM88.0505 14.079L88.0299 16.3915C87.8784 16.3639 87.7133 16.3433 87.5343 16.3295C87.3623 16.3158 87.1902 16.3089 87.0181 16.3089C86.5914 16.3089 86.2163 16.3708 85.8929 16.4947C85.5694 16.6117 85.2975 16.7838 85.0773 17.0109C84.8639 17.2311 84.6988 17.4995 84.5818 17.8161C84.4648 18.1327 84.3959 18.4872 84.3753 18.8795L83.8075 18.9208C83.8075 18.2187 83.8763 17.5684 84.014 16.9696C84.1516 16.3708 84.3581 15.8443 84.6334 15.3901C84.9156 14.9358 85.2666 14.5814 85.6864 14.3267C86.1131 14.0721 86.6052 13.9448 87.1627 13.9448C87.3141 13.9448 87.4758 13.9585 87.6479 13.986C87.8268 14.0136 87.961 14.0445 88.0505 14.079ZM95.5352 23.0812V17.7542C95.5352 17.355 95.4629 17.0109 95.3184 16.7218C95.1738 16.4328 94.9536 16.2091 94.6577 16.0508C94.3686 15.8925 94.0038 15.8133 93.5633 15.8133C93.1573 15.8133 92.8063 15.8822 92.5103 16.0198C92.2144 16.1575 91.9838 16.3433 91.8186 16.5773C91.6535 16.8113 91.5709 17.0763 91.5709 17.3722H89.0932C89.0932 16.9317 89.1999 16.505 89.4132 16.0921C89.6266 15.6791 89.9363 15.3109 90.3424 14.9874C90.7484 14.664 91.2336 14.4093 91.798 14.2235C92.3624 14.0377 92.9955 13.9448 93.6976 13.9448C94.5372 13.9448 95.2805 14.0858 95.9275 14.368C96.5813 14.6502 97.094 15.0769 97.4657 15.6482C97.8442 16.2125 98.0335 16.9214 98.0335 17.7748V22.7405C98.0335 23.2498 98.0679 23.7075 98.1367 24.1136C98.2124 24.5127 98.3191 24.8603 98.4568 25.1562V25.3214H95.9068C95.7898 25.053 95.6969 24.7123 95.6281 24.2994C95.5661 23.8796 95.5352 23.4735 95.5352 23.0812ZM95.8965 18.5285L95.9171 20.0667H94.1311C93.67 20.0667 93.264 20.1114 92.913 20.2009C92.562 20.2835 92.2694 20.4074 92.0354 20.5725C91.8014 20.7377 91.6259 20.9373 91.5089 21.1713C91.3919 21.4053 91.3334 21.6703 91.3334 21.9662C91.3334 22.2622 91.4023 22.534 91.5399 22.7818C91.6776 23.0227 91.8771 23.212 92.1387 23.3496C92.4071 23.4873 92.7306 23.5561 93.1091 23.5561C93.6184 23.5561 94.0623 23.4528 94.4409 23.2464C94.8263 23.033 95.1291 22.7749 95.3493 22.4721C95.5696 22.1624 95.6866 21.8699 95.7003 21.5946L96.5056 22.6992C96.423 22.9814 96.2819 23.2842 96.0823 23.6077C95.8827 23.9312 95.6212 24.2409 95.2977 24.5368C94.9811 24.8259 94.5992 25.0633 94.1518 25.2492C93.7113 25.435 93.202 25.5279 92.6239 25.5279C91.8944 25.5279 91.244 25.3834 90.6727 25.0943C90.1015 24.7984 89.6541 24.4026 89.3306 23.9071C89.0072 23.4047 88.8454 22.8369 88.8454 22.2037C88.8454 21.6118 88.9556 21.0887 89.1758 20.6345C89.4029 20.1734 89.7333 19.7879 90.1669 19.4782C90.6073 19.1685 91.1442 18.9345 91.7774 18.7762C92.4105 18.611 93.1332 18.5285 93.9453 18.5285H95.8965ZM105.198 23.5458C105.604 23.5458 105.969 23.4666 106.292 23.3083C106.623 23.1431 106.888 22.916 107.087 22.627C107.294 22.3379 107.407 22.0041 107.428 21.6256H109.771C109.758 22.3482 109.544 23.0055 109.131 23.5974C108.718 24.1893 108.171 24.6607 107.49 25.0117C106.809 25.3558 106.055 25.5279 105.229 25.5279C104.376 25.5279 103.632 25.3834 102.999 25.0943C102.366 24.7984 101.839 24.3923 101.42 23.8761C101 23.3599 100.683 22.7646 100.47 22.0901C100.263 21.4156 100.16 20.693 100.16 19.9222V19.5608C100.16 18.79 100.263 18.0673 100.47 17.3929C100.683 16.7115 101 16.1127 101.42 15.5965C101.839 15.0804 102.366 14.6777 102.999 14.3887C103.632 14.0927 104.372 13.9448 105.219 13.9448C106.113 13.9448 106.898 14.1237 107.573 14.4816C108.247 14.8326 108.777 15.3247 109.162 15.9579C109.555 16.5842 109.758 17.3137 109.771 18.1465H107.428C107.407 17.7335 107.304 17.3619 107.118 17.0315C106.939 16.6943 106.685 16.4259 106.354 16.2263C106.031 16.0267 105.642 15.9269 105.188 15.9269C104.685 15.9269 104.269 16.0301 103.939 16.2366C103.608 16.4362 103.35 16.7115 103.164 17.0625C102.979 17.4066 102.844 17.7955 102.762 18.2291C102.686 18.6558 102.648 19.0997 102.648 19.5608V19.9222C102.648 20.3833 102.686 20.8306 102.762 21.2642C102.837 21.6978 102.968 22.0867 103.154 22.4308C103.347 22.768 103.608 23.0399 103.939 23.2464C104.269 23.446 104.689 23.5458 105.198 23.5458ZM114.19 9.46428V25.3214H111.692V9.46428H114.19ZM121.128 14.1512L116.265 19.5402L113.602 22.2656L112.951 20.1596L114.964 17.6716L118.123 14.1512H121.128ZM118.66 25.3214L115.037 20.077L116.606 18.3323L121.54 25.3214H118.66ZM127.425 25.5279C126.599 25.5279 125.852 25.3937 125.185 25.1253C124.524 24.85 123.96 24.468 123.492 23.9794C123.031 23.4907 122.676 22.916 122.428 22.2553C122.181 21.5946 122.057 20.8823 122.057 20.1183V19.7054C122.057 18.8313 122.184 18.0398 122.439 17.3309C122.693 16.622 123.048 16.0164 123.502 15.5139C123.956 15.0046 124.493 14.6158 125.112 14.3474C125.732 14.079 126.403 13.9448 127.126 13.9448C127.924 13.9448 128.622 14.079 129.221 14.3474C129.82 14.6158 130.316 14.9943 130.708 15.483C131.107 15.9647 131.403 16.5394 131.596 17.207C131.795 17.8746 131.895 18.611 131.895 19.4163V20.4796H123.265V18.6936H129.438V18.4975C129.424 18.0501 129.335 17.6303 129.17 17.238C129.011 16.8457 128.767 16.5291 128.437 16.2882C128.106 16.0473 127.666 15.9269 127.115 15.9269C126.702 15.9269 126.334 16.0164 126.011 16.1953C125.694 16.3674 125.429 16.6186 125.216 16.9489C125.002 17.2793 124.837 17.6785 124.72 18.1465C124.61 18.6076 124.555 19.1272 124.555 19.7054V20.1183C124.555 20.607 124.62 21.0612 124.751 21.481C124.889 21.894 125.088 22.2553 125.35 22.565C125.611 22.8747 125.928 23.119 126.3 23.298C126.671 23.47 127.095 23.5561 127.569 23.5561C128.168 23.5561 128.702 23.4356 129.17 23.1948C129.638 22.9539 130.044 22.6132 130.388 22.1727L131.699 23.4425C131.458 23.7935 131.145 24.1308 130.759 24.4542C130.374 24.7708 129.903 25.0289 129.345 25.2285C128.795 25.4281 128.154 25.5279 127.425 25.5279ZM136.334 16.2779V25.3214H133.846V14.1512H136.221L136.334 16.2779ZM139.751 14.079L139.731 16.3915C139.579 16.3639 139.414 16.3433 139.235 16.3295C139.063 16.3158 138.891 16.3089 138.719 16.3089C138.292 16.3089 137.917 16.3708 137.594 16.4947C137.27 16.6117 136.998 16.7838 136.778 17.0109C136.565 17.2311 136.4 17.4995 136.283 17.8161C136.166 18.1327 136.097 18.4872 136.076 18.8795L135.508 18.9208C135.508 18.2187 135.577 17.5684 135.715 16.9696C135.852 16.3708 136.059 15.8443 136.334 15.3901C136.616 14.9358 136.967 14.5814 137.387 14.3267C137.814 14.0721 138.306 13.9448 138.864 13.9448C139.015 13.9448 139.177 13.9585 139.349 13.986C139.528 14.0136 139.662 14.0445 139.751 14.079Z" fill="white"/>
</svg>
